<?xml version="1.0" encoding="UTF-8" standalone="no"?>
<!DOCTYPE svg PUBLIC "-//W3C//DTD SVG 1.1//EN"
 "http://www.w3.org/Graphics/SVG/1.1/DTD/svg11.dtd">
<!-- Generated by graphviz version 2.36.0 (20140111.2315)
 -->
<!-- Title: net_neuron Pages: 1 -->
<svg width="188pt" height="952pt"
 viewBox="0.00 0.00 188.00 952.00" xmlns="http://www.w3.org/2000/svg" xmlns:xlink="http://www.w3.org/1999/xlink">
<g id="graph0" class="graph" transform="scale(1 1) rotate(0) translate(4 948)">
<title>net_neuron</title>
<polygon fill="white" stroke="none" points="-4,4 -4,-948 184,-948 184,4 -4,4"/>
<g id="clust1" class="cluster"><title>cluster_0</title>
<polygon fill="none" stroke="black" points="13,-8 13,-78 167,-78 167,-8 13,-8"/>
</g>
<g id="clust2" class="cluster"><title>cluster_1</title>
<polygon fill="none" stroke="black" points="13,-86 13,-156 167,-156 167,-86 13,-86"/>
</g>
<g id="clust3" class="cluster"><title>cluster_2</title>
<polygon fill="none" stroke="black" points="13,-164 13,-234 167,-234 167,-164 13,-164"/>
</g>
<g id="clust4" class="cluster"><title>cluster_3</title>
<polygon fill="none" stroke="black" points="13,-242 13,-312 167,-312 167,-242 13,-242"/>
</g>
<g id="clust5" class="cluster"><title>cluster_4</title>
<polygon fill="none" stroke="black" points="13,-320 13,-390 167,-390 167,-320 13,-320"/>
</g>
<g id="clust6" class="cluster"><title>cluster_5</title>
<polygon fill="none" stroke="black" points="13,-398 13,-468 167,-468 167,-398 13,-398"/>
</g>
<g id="clust7" class="cluster"><title>cluster_6</title>
<polygon fill="none" stroke="black" points="8,-476 8,-546 172,-546 172,-476 8,-476"/>
</g>
<g id="clust8" class="cluster"><title>cluster_7</title>
<polygon fill="none" stroke="black" points="13,-554 13,-624 167,-624 167,-554 13,-554"/>
</g>
<g id="clust9" class="cluster"><title>cluster_8</title>
<polygon fill="none" stroke="black" points="8,-632 8,-702 172,-702 172,-632 8,-632"/>
</g>
<g id="clust10" class="cluster"><title>cluster_9</title>
<polygon fill="none" stroke="black" points="13,-710 13,-780 167,-780 167,-710 13,-710"/>
</g>
<g id="clust12" class="cluster"><title>cluster_11</title>
<polygon fill="none" stroke="black" points="12,-788 12,-858 168,-858 168,-788 12,-788"/>
</g>
<g id="clust13" class="cluster"><title>cluster_12</title>
<polygon fill="none" stroke="black" points="12,-866 12,-936 168,-936 168,-866 12,-866"/>
</g>
<!-- item3 -->
<g id="node1" class="node"><title>item3</title>
<ellipse fill="none" stroke="black" cx="90" cy="-43" rx="68.6788" ry="26.7407"/>
<text text-anchor="middle" x="90" y="-46.8" font-family="Times,serif" font-size="14.00">id neurona = 3</text>
<text text-anchor="middle" x="90" y="-31.8" font-family="Times,serif" font-size="14.00">Categoria= 0</text>
</g>
<!-- item8 -->
<g id="node2" class="node"><title>item8</title>
<ellipse fill="none" stroke="black" cx="90" cy="-121" rx="68.6788" ry="26.7407"/>
<text text-anchor="middle" x="90" y="-124.8" font-family="Times,serif" font-size="14.00">id neurona = 8</text>
<text text-anchor="middle" x="90" y="-109.8" font-family="Times,serif" font-size="14.00">Categoria= 1</text>
</g>
<!-- item4 -->
<g id="node3" class="node"><title>item4</title>
<ellipse fill="none" stroke="black" cx="90" cy="-199" rx="68.6788" ry="26.7407"/>
<text text-anchor="middle" x="90" y="-202.8" font-family="Times,serif" font-size="14.00">id neurona = 4</text>
<text text-anchor="middle" x="90" y="-187.8" font-family="Times,serif" font-size="14.00">Categoria= 2</text>
</g>
<!-- item9 -->
<g id="node4" class="node"><title>item9</title>
<ellipse fill="none" stroke="black" cx="90" cy="-277" rx="68.6788" ry="26.7407"/>
<text text-anchor="middle" x="90" y="-280.8" font-family="Times,serif" font-size="14.00">id neurona = 9</text>
<text text-anchor="middle" x="90" y="-265.8" font-family="Times,serif" font-size="14.00">Categoria= 3</text>
</g>
<!-- item2 -->
<g id="node5" class="node"><title>item2</title>
<ellipse fill="none" stroke="black" cx="90" cy="-355" rx="68.6788" ry="26.7407"/>
<text text-anchor="middle" x="90" y="-358.8" font-family="Times,serif" font-size="14.00">id neurona = 2</text>
<text text-anchor="middle" x="90" y="-343.8" font-family="Times,serif" font-size="14.00">Categoria= 4</text>
</g>
<!-- item5 -->
<g id="node6" class="node"><title>item5</title>
<ellipse fill="none" stroke="black" cx="90" cy="-433" rx="68.6788" ry="26.7407"/>
<text text-anchor="middle" x="90" y="-436.8" font-family="Times,serif" font-size="14.00">id neurona = 5</text>
<text text-anchor="middle" x="90" y="-421.8" font-family="Times,serif" font-size="14.00">Categoria= 5</text>
</g>
<!-- item10 -->
<g id="node7" class="node"><title>item10</title>
<ellipse fill="none" stroke="black" cx="90" cy="-511" rx="73.5782" ry="26.7407"/>
<text text-anchor="middle" x="90" y="-514.8" font-family="Times,serif" font-size="14.00">id neurona = 10</text>
<text text-anchor="middle" x="90" y="-499.8" font-family="Times,serif" font-size="14.00">Categoria= 6</text>
</g>
<!-- item6 -->
<g id="node8" class="node"><title>item6</title>
<ellipse fill="none" stroke="black" cx="90" cy="-589" rx="68.6788" ry="26.7407"/>
<text text-anchor="middle" x="90" y="-592.8" font-family="Times,serif" font-size="14.00">id neurona = 6</text>
<text text-anchor="middle" x="90" y="-577.8" font-family="Times,serif" font-size="14.00">Categoria= 7</text>
</g>
<!-- item11 -->
<g id="node9" class="node"><title>item11</title>
<ellipse fill="none" stroke="black" cx="90" cy="-667" rx="73.5782" ry="26.7407"/>
<text text-anchor="middle" x="90" y="-670.8" font-family="Times,serif" font-size="14.00">id neurona = 11</text>
<text text-anchor="middle" x="90" y="-655.8" font-family="Times,serif" font-size="14.00">Categoria= 8</text>
</g>
<!-- item7 -->
<g id="node10" class="node"><title>item7</title>
<ellipse fill="none" stroke="black" cx="90" cy="-745" rx="68.6788" ry="26.7407"/>
<text text-anchor="middle" x="90" y="-748.8" font-family="Times,serif" font-size="14.00">id neurona = 7</text>
<text text-anchor="middle" x="90" y="-733.8" font-family="Times,serif" font-size="14.00">Categoria= 9</text>
</g>
<!-- item1 -->
<g id="node11" class="node"><title>item1</title>
<ellipse fill="none" stroke="black" cx="90" cy="-823" rx="69.0935" ry="26.7407"/>
<text text-anchor="middle" x="90" y="-826.8" font-family="Times,serif" font-size="14.00">id neurona = 1</text>
<text text-anchor="middle" x="90" y="-811.8" font-family="Times,serif" font-size="14.00">Categoria = &#39;+&#39;</text>
</g>
<!-- item0 -->
<g id="node12" class="node"><title>item0</title>
<ellipse fill="none" stroke="black" cx="90" cy="-901" rx="69.0935" ry="26.7407"/>
<text text-anchor="middle" x="90" y="-904.8" font-family="Times,serif" font-size="14.00">id neurona = 0</text>
<text text-anchor="middle" x="90" y="-889.8" font-family="Times,serif" font-size="14.00">Categoria = &#39;=&#39;</text>
</g>
</g>
</svg>
